<svg width="22" height="13" xmlns="http://www.w3.org/2000/svg" xmlns:xlink="http://www.w3.org/1999/xlink">
	<path d="M21.837.998C21.563.766 20.508.774 19.462.78c-1.07.005-2.133.012-2.378.11-.227.09-.74 1.334-1.403 2.615-.752 1.451-1.682 2.844-2.27 2.835-.76-.012-.584-2.394-.539-4.143.03-1.159-.157-1.521-.325-1.635-.406-.276-1.512-.545-1.512-.545s-3.306-.253-3.781 1.2c.63.083 1.716-.12 1.296 4.36-.02.217-.506 2.064-2.053-.435C6.116 4.524 4.632.795 4.121.78 2.408.733.726.662.126.998c-.547.307.74 2.885 2.916 6.324 1.78 2.811 3.663 5.008 6.913 5.56.607.061 2.206.135 2.7-.108.344-.17-.075-2.609 1.08-2.835.519-.102 2.49 2.532 3.24 2.835.455.183 1.458.251 2.484.218 1.11-.036 2.362.098 2.485-.655.27-1.681-3.348-3.867-3.456-4.907-.079-.745 1.323-2.118 2.052-3.16.888-1.27 1.85-2.8 1.297-3.272z"></path>
</svg>
