<svg width="160" height="142" xmlns="http://www.w3.org/2000/svg" xmlns:xlink="http://www.w3.org/1999/xlink">
  <path fill="#FFF" fill-opacity=".4" id="path0_fill" d="M150.279 121.808c-12.916-6.794-25.164-11.62-36.003-13.942 5.051-6.443 8.877-14.082 10.865-22.173 4.803-1.961 8.197-6.68 8.197-12.18v-20.36c0-5.023-2.829-9.394-6.977-11.61C123.62 18.62 102.847 0 80.003 0 57.16 0 36.387 18.619 33.646 41.54c-4.148 2.216-6.978 6.588-6.978 11.61v20.366c0 5.5 3.394 10.215 8.196 12.174 1.988 8.092 5.814 15.732 10.865 22.175-10.836 2.323-23.085 7.149-36 13.942A18.222 18.222 0 0 0 0 137.92v15.414A6.667 6.667 0 0 0 6.667 160h146.666a6.667 6.667 0 0 0 6.667-6.666V137.92a18.214 18.214 0 0 0-9.721-16.112zM46.669 46.666c0-17.748 16.081-33.333 33.334-33.333 17.253 0 33.333 15.585 33.333 33.333v26.666c0 2.747-.319 5.489-.909 8.177-9.161 2.913-21.554 5.156-32.422 5.156a6.666 6.666 0 1 0 0 13.333c8.396 0 17.442-1.148 25.652-2.927-2.802 4.133-6.207 7.732-9.936 10.486a6.673 6.673 0 0 0-.542.343c-3.71 2.635-7.608 4.349-11.451 5.039-1.296.228-2.284.345-3.154.381-.19.006-.38.011-.571.011-.196 0-.391-.005-.587-.011-.861-.036-1.821-.148-2.95-.342-4.03-.73-7.929-2.443-11.637-5.078a6.467 6.467 0 0 0-.547-.345c-9.958-7.356-17.612-20.737-17.612-34.223V46.666zm99.998 100.001H13.333v-8.746a4.889 4.889 0 0 1 2.606-4.314c14.21-7.476 27.347-12.282 37.802-13.606h5.127c6.207 4.014 13.104 6.444 20.169 6.648.322.011.643.019.963.019.32 0 .642-.008.963-.019 7.067-.203 13.965-2.633 20.175-6.648h5.121c10.461 1.324 23.598 6.13 37.811 13.607a4.882 4.882 0 0 1 2.597 4.313v8.746z"/>
</svg>
