<svg width="181" height="45" xmlns="http://www.w3.org/2000/svg" xmlns:xlink="http://www.w3.org/1999/xlink">
  <use xlink:href="#path0_fill" transform="translate(52 4)" fill="#113465"/>
  <use xlink:href="#path1_fill" transform="translate(23.04 22.973)" fill="#AD2B31"/>
  <use xlink:href="#path2_fill" transform="translate(2.31 2.463)" fill="#AD2B31"/>
  <use xlink:href="#path3_fill" transform="translate(29.86 .972)" fill="#AD2B31"/>
  <use xlink:href="#path4_fill" transform="translate(28.01 4.219)" fill="#AD2B31"/>
  <use xlink:href="#path5_fill" transform="translate(15.48 6.091)" fill="#AD2B31"/>
  <use xlink:href="#path6_fill" transform="translate(12.1 27.304)" fill="#AD2B31"/>
  <use xlink:href="#path7_fill" transform="translate(10.39 29.004)" fill="#AD2B31"/>
  <g>
    <use xlink:href="#path8_fill" transform="translate(14.62)" fill="#113465"/>
    <use xlink:href="#path9_fill" transform="translate(0 14.574)" fill="#113465"/>
  </g>
  <defs>
    <path id="path0_fill" d="M2.25 28h7.89c4.26 0 8.16-1.71 8.16-6.39 0-1.89-.9-4.08-3.36-4.83v-.06c1.62-.93 2.49-2.76 2.49-4.56 0-3.69-3-5.61-7.29-5.61H2.25V28zM7.5 14.86v-3.81h2.61c1.41 0 1.98.84 1.98 1.83 0 1.02-.57 1.98-1.89 1.98H7.5zm0 8.64v-4.44h3.18c1.53 0 2.25.99 2.25 2.19s-.75 2.25-2.28 2.25H7.5zm13.004-6.36c0 6.3 4.74 11.22 11.22 11.22s11.22-4.92 11.22-11.22c0-6.15-4.74-10.95-11.22-10.95s-11.22 4.8-11.22 10.95zm5.43 0c0-3.51 2.58-6.15 5.79-6.15s5.79 2.64 5.79 6.15c0 3.66-2.58 6.42-5.79 6.42s-5.79-2.76-5.79-6.42zm19.21.09c0 6.36 4.35 11.13 11.25 11.13 3.93 0 6.75-1.65 8.64-3.6l-2.7-3.84c-1.47 1.47-3.57 2.64-5.7 2.64-4.14 0-6.06-3.27-6.06-6.45 0-3.09 1.77-6.12 6.06-6.12 1.92 0 3.99.99 5.37 2.19l2.43-3.96c-2.1-2.07-5.16-3.03-8.04-3.03-6.63 0-11.25 4.8-11.25 11.04zM72.348 28h5.25V11.05h6.51v-4.5H65.84v4.5h6.51V28zm12.725-10.86c0 6.3 4.74 11.22 11.22 11.22s11.22-4.92 11.22-11.22c0-6.15-4.74-10.95-11.22-10.95s-11.22 4.8-11.22 10.95zm5.43 0c0-3.51 2.58-6.15 5.79-6.15s5.79 2.64 5.79 6.15c0 3.66-2.58 6.42-5.79 6.42s-5.79-2.76-5.79-6.42zM110.854 28h5.25v-8.7h2.16l4.53 8.7h5.88l-6.12-11.13v-.06l5.79-10.26h-5.64l-4.44 8.28h-2.16V6.55h-5.25V28z"/>
    <path id="path1_fill" d="M0 5.5L5.036 0l7.853 7.853-.016.066a8.109 8.109 0 0 1-5.368 5.087L0 5.5z"/>
    <path id="path2_fill" d="M13.999 2.402A8.206 8.206 0 0 0 5.88.33l3.81 3.827-1.093 4.457L4.14 9.708.331 5.881a8.207 8.207 0 0 0 2.07 8.118 8.196 8.196 0 0 0 8.318 2.005l4.373 4.374 5.5-5.037-4.622-4.622A8.112 8.112 0 0 0 14 2.402z"/>
    <path id="path3_fill" d="M14.761 11.945L3.115.298a1 1 0 0 0-1.425 0L0 1.988l13.055 13.055 1.69-1.69a.995.995 0 0 0 .017-1.408z"/>
    <path id="path4_fill" d="M11.912 13.37L.298 1.74A1.02 1.02 0 0 1 1.74.298l11.63 11.63a1.02 1.02 0 0 1 0 1.442 1.04 1.04 0 0 1-1.458 0z"/>
    <path id="path5_fill" d="M17.777 6.528L11.249 0 6.146 5.103a1.2 1.2 0 0 0 0 1.69l2.005 2.004a4.422 4.422 0 0 1 4.324.647l.066.066L0 21.405l1.574 1.342 1.342 1.574L14.81 11.78l.066.066a4.422 4.422 0 0 1 .647 4.324l2.004 2.005a1.2 1.2 0 0 0 1.69 0l5.103-5.103-6.544-6.544zm-3.579 3.595c-.662-.663-.662-1.74 0-2.386.663-.663 1.74-.663 2.386 0 .663.663.663 1.74 0 2.386a1.68 1.68 0 0 1-2.386 0z"/>
    <path id="path6_fill" d="M1.309 2.081a2.27 2.27 0 0 1 2.684.398 2.27 2.27 0 0 1 .397 2.684l1.326 1.325a4.085 4.085 0 0 0-.431-5.285C3.844-.238 1.59-.387 0 .773L1.309 2.08z"/>
    <path id="path7_fill" d="M5.18 4.407a2.27 2.27 0 0 1-2.685-.398 2.27 2.27 0 0 1-.397-2.684L.772 0a4.085 4.085 0 0 0 .43 5.285c1.442 1.441 3.695 1.59 5.286.43L5.179 4.408z"/>
    <path id="path8_fill" d="M3.463 3.987c1.424-.331 2.899-.514 4.406-.514 1.243 0 2.452.116 3.645.348L14.38.955A22.733 22.733 0 0 0 0 1.402c.63.299 1.309.68 1.955 1.193.58.464 1.093.945 1.508 1.392z"/>
    <path id="path9_fill" d="M44.391 2.7l-2.998 3c.082.728.132 1.474.132 2.22 0 5.086-1.971 9.857-5.566 13.452-3.596 3.595-8.367 5.567-13.453 5.567-5.086 0-9.858-1.972-13.453-5.567C5.458 17.777 3.47 13.006 3.47 7.92c0-1.474.166-2.932.497-4.324a14.914 14.914 0 0 1-1.54-1.723c-.398-.53-.73-1.21-.995-1.872C-1.566 8.002.14 17.396 6.585 23.84c8.78 8.782 23.045 8.782 31.826 0 5.732-5.732 7.72-13.784 5.98-21.14z"/>
  </defs>
</svg>
