<svg width="80" height="80" xmlns="http://www.w3.org/2000/svg" xmlns:xlink="http://www.w3.org/1999/xlink">
  <use xlink:href="#path0_fill" fill="#AD2B31"/>
  <use xlink:href="#path1_fill" transform="translate(32 4)" fill="#AD2B31"/>
  <use xlink:href="#path2_fill" transform="translate(24 73.33)" fill="#AD2B31"/>
  <use xlink:href="#path3_fill" transform="translate(53.334 73.33)" fill="#AD2B31"/>
  <defs>
    <path id="path0_fill" d="M76 64.267c-.267-.134-.667-.4-.933-.534a74.508 74.508 0 0 0-7.202-3.19 1.113 1.113 0 0 0-.531-.41C64.267 59.067 60.934 58 57.6 57.2a1.272 1.272 0 0 0-.643.016 96.153 96.153 0 0 0-4.95-1.025c.071-.5.116-1.007.127-1.524v-3.525c5.623-4.961 9.1-12.978 8.933-20.475v-6.598c.09-.065.18-.133.267-.202A7.54 7.54 0 0 0 64 18.133C64 8.133 55.867 0 46 0H34.133C24.133 0 16 8.133 15.867 18c0 2.267.933 4.267 2.666 5.733.044.034.09.065.134.098v6.836c0 7.561 3.6 15.651 9.333 20.602v3.398c0 .465.029.924.08 1.375-8.298 1.49-16.093 3.967-23.147 7.558L4 64.133c-2.533 1.2-4 3.734-4 6.534v8C0 79.467.533 80 1.333 80h77.334c.8 0 1.333-.533 1.333-1.2v-8c0-2.667-1.6-5.2-4-6.533zm-17.867 5.066h-5.2l5.157-9.255c2.234.566 4.42 1.219 6.548 1.954l-6.505 7.301zm1.467-47.6l-.107.089c-.15.035-.296.09-.426.178a4.414 4.414 0 0 1-1.827.829 4.337 4.337 0 0 1-1.507-.029c-9.562-1.816-19.235-1.983-28.52-.502-1.03.15-2.056.316-3.08.502a5.431 5.431 0 0 1-.492.032c-1.072-.02-2.11-.317-2.974-.965-.8-.534-1.334-1.334-1.6-2.134l5.733-1.066c10-1.867 20.267-1.867 30.533 0l5.689 1.058a5.216 5.216 0 0 1-1.422 2.008zM34 2.667h11.867c8.178 0 14.886 6.369 15.43 14.411l-5.563-.945c-10.534-1.866-21.2-1.866-31.467 0l-5.564.945C19.247 9.036 25.95 2.667 34 2.667zm-12.667 28V25.2c1.067.267 2.267.4 3.467.133a82.574 82.574 0 0 1 15.1-1.4c5.078.005 10.19.47 15.3 1.4.364.091.666.12.948.129.84.064 1.717-.061 2.519-.262v5.467c0 12.434-9.12 21.908-17.644 22.622-.096.007-.192.015-.289.02a12.362 12.362 0 0 1-1.465.001c-.104-.006-.207-.015-.31-.023-1.718-.146-3.459-.646-5.145-1.456l-.043-.02-.03-.016a16.855 16.855 0 0 1-3.474-2.328 1.67 1.67 0 0 0-.408-.193C25 45.248 21.333 38.552 21.333 30.667zm18.026 25.32l.046.002a16.794 16.794 0 0 0 1.19 0l.047-.002c3.156-.12 6.089-1.123 8.691-2.75v1.43C49.333 59.867 45.2 64 40 64a9.276 9.276 0 0 1-9.333-9.333V53.24c2.606 1.625 5.537 2.627 8.691 2.747zm-10.372 3.478l.078.172a11.921 11.921 0 0 0 2.82 3.897l.038.035a11.846 11.846 0 0 0 6.79 3.03l.125.011c.147.014.295.025.444.034l.148.008a12.514 12.514 0 0 0 1.141 0l.145-.008c.152-.009.304-.02.456-.034l.107-.01c3.807-.39 7.132-2.507 9.019-5.675l.034-.058.071-.121c.389-.653.719-1.345.983-2.07a80.44 80.44 0 0 1 3.894.743l-5.447 9.914h-19.74l-5.439-9.9a79.566 79.566 0 0 1 4.013-.766c.075.207.156.41.24.611l.08.187zm-13.508 2.55a77.7 77.7 0 0 1 6.549-1.964l5.039 9.282h-5.2l-6.388-7.319zM2.667 70.666c0-1.734.933-3.334 2.533-4.134L6.133 66a74.51 74.51 0 0 1 6.577-2.958l5.8 6.455c-2.995.661-5.177 3.284-5.177 6.503v1.333H2.667v-6.666zM16 77.333V76c0-2.267 1.733-4 4-4h40c2.267 0 4 1.733 4 4v1.333H16zm61.333 0H66.667V76c0-3.255-2.23-5.901-5.276-6.526l5.84-6.499a80.92 80.92 0 0 1 6.636 2.892c.266.266.666.4.933.533 1.6.933 2.533 2.533 2.533 4.267v6.666z"/>
    <path id="path1_fill" d="M1.333 8h13.334C15.467 8 16 7.467 16 6.667V1.333C16 .533 15.467 0 14.667 0H1.333C.533 0 0 .533 0 1.333v5.334C0 7.467.533 8 1.333 8zm1.334-5.333h10.667v2.666H2.667V2.667z"/>
    <path id="path2_fill" d="M1.333 0C.533 0 0 .533 0 1.333c0 .8.533 1.334 1.333 1.334.8 0 1.334-.534 1.334-1.334S2.133 0 1.333 0z"/>
    <path id="path3_fill" d="M1.333 0C.533 0 0 .533 0 1.333c0 .8.533 1.334 1.333 1.334.8 0 1.334-.534 1.334-1.334S2.133 0 1.333 0z"/>
  </defs>
</svg>
