<svg width="145" height="112" xmlns="http://www.w3.org/2000/svg" xmlns:xlink="http://www.w3.org/1999/xlink">
  <use xlink:href="#path0_fill" fill="#FFF" fill-opacity=".5"/>
  <use xlink:href="#path1_fill" transform="translate(33.63 33.58)" fill="#FFF" fill-opacity=".5"/>
  <use xlink:href="#path2_fill" transform="translate(43.656 18.67)" fill="#FFF" fill-opacity=".5"/>
  <use xlink:href="#path3_fill" transform="translate(105.666 105.71)" fill="#FFF" fill-opacity=".5"/>
  <use xlink:href="#path4_fill" transform="translate(18.695 49.78)" fill="#FFF" fill-opacity=".5"/>
  <use xlink:href="#path5_fill" transform="translate(53.728 48.95)" fill="#FFF" fill-opacity=".5"/>
  <use xlink:href="#path6_fill" transform="translate(77.666 79.42)" fill="#FFF" fill-opacity=".5"/>
  <use xlink:href="#path7_fill" transform="translate(43.549 41.79)" fill="#FFF" fill-opacity=".5"/>
  <defs>
    <path id="path0_fill" d="M143.234 72.144a11.755 11.755 0 0 0-1.77-14.602l-5.653-5.57a6.139 6.139 0 0 1-1.817-4.814l.567-7.954a11.745 11.745 0 0 0-8.37-12.145l-7.485-2.256a6.132 6.132 0 0 1-3.864-3.44l-3.133-7.229c-2.19-5.054-7.705-7.952-13.108-6.891l-7.594 1.49a6.13 6.13 0 0 1-5.044-1.248l-6.046-4.882c-4.297-3.47-10.537-3.47-14.834 0l-6.046 4.882a6.132 6.132 0 0 1-5.044 1.248l-7.595-1.49c-5.403-1.061-10.916 1.837-13.107 6.89l-3.135 7.23a6.133 6.133 0 0 1-3.864 3.44l-7.484 2.256a11.744 11.744 0 0 0-8.369 12.145l.566 7.954a6.138 6.138 0 0 1-1.817 4.815l-5.653 5.57a11.755 11.755 0 0 0-1.769 14.6l4.18 6.793a6.14 6.14 0 0 1 .616 5.102l-2.445 7.606a11.751 11.751 0 0 0 5.213 13.769l6.774 4.023a6.135 6.135 0 0 1 2.92 4.251l1.334 7.822c.937 5.499 5.483 9.533 11.054 9.81l7.76.386a6.127 6.127 0 0 1 4.586 2.419l4.731 6.225c2.281 3.002 5.829 4.65 9.441 4.65 1.678 0 3.37-.355 4.956-1.095l7.014-3.276a6.134 6.134 0 0 1 5.2 0l7.014 3.276c5.002 2.336 11.056.841 14.397-3.555l4.729-6.224a6.133 6.133 0 0 1 4.588-2.42l7.761-.385c5.571-.277 10.116-4.311 11.054-9.81l1.333-7.822a6.13 6.13 0 0 1 2.92-4.251l6.775-4.023a11.75 11.75 0 0 0 5.212-13.769l-2.445-7.606a6.136 6.136 0 0 1 .617-5.102l4.179-6.793zm-9.003 3.824a11.793 11.793 0 0 0-1.184 9.803l2.445 7.606a6.116 6.116 0 0 1-2.713 7.166l-6.774 4.023a11.787 11.787 0 0 0-5.612 8.169l-1.333 7.822a6.108 6.108 0 0 1-5.753 5.105l-7.761.386a11.779 11.779 0 0 0-8.815 4.649l-4.73 6.224c-1.738 2.288-4.889 3.065-7.492 1.85l-7.014-3.276a11.784 11.784 0 0 0-9.992 0l-7.014 3.276c-2.603 1.215-5.753.438-7.492-1.849l-4.731-6.226a11.78 11.78 0 0 0-8.814-4.648l-7.76-.386a6.108 6.108 0 0 1-5.752-5.105l-1.333-7.822a11.79 11.79 0 0 0-5.612-8.169l-6.775-4.023a6.114 6.114 0 0 1-2.713-7.165l2.446-7.606a11.797 11.797 0 0 0-1.185-9.804l-4.18-6.793a6.118 6.118 0 0 1 .921-7.599l5.653-5.57a11.794 11.794 0 0 0 3.492-9.25l-.566-7.955a6.112 6.112 0 0 1 4.355-6.32l7.484-2.257a11.785 11.785 0 0 0 7.425-6.608l3.135-7.23c.982-2.266 3.247-3.7 5.655-3.7.386 0 .776.038 1.165.114l7.596 1.491c3.435.674 6.967-.2 9.69-2.4L68.64 7.01a6.177 6.177 0 0 1 7.72 0l6.046 4.881a11.78 11.78 0 0 0 9.692 2.4l7.594-1.49c2.813-.553 5.682.955 6.821 3.585l3.134 7.23a11.785 11.785 0 0 0 7.425 6.609l7.486 2.256a6.11 6.11 0 0 1 4.355 6.32l-.566 7.955a11.792 11.792 0 0 0 3.492 9.252l5.652 5.569a6.115 6.115 0 0 1 .921 7.598l-4.18 6.794z"/>
    <path id="path1_fill" d="M4.885.84A2.831 2.831 0 0 0 .881.82L.839.86a2.832 2.832 0 0 0 3.985 4.025l.041-.04A2.832 2.832 0 0 0 4.885.84z"/>
    <path id="path2_fill" d="M81.731 43.944c-1.99-10.699-7.123-20.436-14.846-28.16C49.468-1.633 22.534-5.02 1.385 7.549a2.832 2.832 0 0 0 2.894 4.869C23.199 1.17 47.297 4.203 62.88 19.79c13.934 13.935 17.977 34.668 10.3 52.818a2.832 2.832 0 1 0 5.215 2.206c4.125-9.75 5.278-20.425 3.335-30.87z"/>
    <path id="path3_fill" d="M4.885.84A2.831 2.831 0 0 0 .881.82L.839.86a2.832 2.832 0 0 0 3.985 4.025l.041-.041a2.832 2.832 0 0 0 .02-4.005z"/>
    <path id="path4_fill" d="M82.251 65.114a2.832 2.832 0 0 0-3.88-.988 47.944 47.944 0 0 1-24.542 6.752 48.114 48.114 0 0 1-34.06-14.124C5.833 42.818 1.79 22.085 9.468 3.936a2.832 2.832 0 1 0-5.216-2.207C.13 11.48-1.024 22.154.918 32.6c1.99 10.7 7.124 20.437 14.846 28.16A53.764 53.764 0 0 0 53.83 76.543a53.602 53.602 0 0 0 27.434-7.547 2.833 2.833 0 0 0 .987-3.882z"/>
    <path id="path5_fill" d="M30.474.366a2.83 2.83 0 0 0-3.858 1.074L.366 47.943a2.832 2.832 0 0 0 4.931 2.785l26.25-46.504A2.831 2.831 0 0 0 30.474.366z"/>
    <path id="path6_fill" d="M11.892 0C5.335 0 0 5.335 0 11.893c0 6.558 5.335 11.894 11.892 11.894 6.558 0 11.893-5.335 11.893-11.893C23.785 5.334 18.45 0 11.892 0zm0 18.123a6.237 6.237 0 0 1-6.23-6.23 6.237 6.237 0 0 1 6.23-6.23 6.237 6.237 0 0 1 6.23 6.23 6.237 6.237 0 0 1-6.23 6.23z"/>
    <path id="path7_fill" d="M11.892 0C5.335 0 0 5.335 0 11.893c0 6.559 5.335 11.894 11.892 11.894 6.558 0 11.893-5.335 11.893-11.893C23.785 5.334 18.45 0 11.892 0zm0 18.123a6.237 6.237 0 0 1-6.23-6.23 6.237 6.237 0 0 1 6.23-6.23 6.237 6.237 0 0 1 6.23 6.23 6.237 6.237 0 0 1-6.23 6.23z"/>
  </defs>
</svg>
