<svg width="22" height="17" xmlns="http://www.w3.org/2000/svg" xmlns:xlink="http://www.w3.org/1999/xlink">
	<path d="M16.884 7.555h-7.88V10.2h4.808c-.717 2.299-2.85 3.967-5.37 3.967-3.108 0-5.628-2.537-5.628-5.667s2.52-5.667 5.628-5.667c1.565 0 2.98.644 4 1.682L14.35 2.43A8.384 8.384 0 0 0 8.442 0C3.78 0 0 3.806 0 8.5S3.78 17 8.442 17c4.084 0 7.66-2.92 8.442-6.8V7.556z">
	</path>
	<path transform="translate(17.4 5.93)" d="M4.605 1.623H2.993V0H1.612v1.623H0v1.39h1.612v1.623h1.381V3.014h1.612V1.623z">
	</path>
</svg>
