<svg width="21" height="21" xmlns="http://www.w3.org/2000/svg" xmlns:xlink="http://www.w3.org/1999/xlink">
	<path d="M10.5 1.892c2.804 0 3.135.01 4.243.062 1.024.046 1.579.218 1.95.362.49.19.84.418 1.207.786.367.367.595.717.785 1.206.145.37.315.927.362 1.95.05 1.108.062 1.44.062 4.243 0 2.804-.01 3.137-.062 4.243-.046 1.024-.217 1.58-.362 1.95-.19.49-.417.84-.785 1.207a3.26 3.26 0 0 1-1.207.786c-.37.144-.926.314-1.95.362-1.108.05-1.439.061-4.243.061-2.804 0-3.136-.01-4.243-.061-1.024-.047-1.579-.218-1.95-.362A3.25 3.25 0 0 1 3.1 17.9a3.26 3.26 0 0 1-.785-1.207c-.145-.37-.315-.926-.362-1.95-.05-1.108-.062-1.439-.062-4.243 0-2.804.01-3.135.062-4.242.046-1.026.217-1.58.362-1.952.19-.49.418-.84.785-1.207a3.26 3.26 0 0 1 1.207-.785c.37-.143.926-.315 1.95-.362 1.107-.05 1.439-.06 4.243-.06zM10.5 0C7.648 0 7.29.012 6.17.063 5.054.115 4.29.291 3.623.551a5.143 5.143 0 0 0-1.86 1.211 5.143 5.143 0 0 0-1.21 1.86C.291 4.29.114 5.052.062 6.17.012 7.29 0 7.648 0 10.5c0 2.852.012 3.21.063 4.33.052 1.117.228 1.88.488 2.548.268.69.628 1.276 1.211 1.86.583.584 1.17.943 1.86 1.21.668.26 1.43.437 2.549.489 1.12.051 1.477.063 4.329.063 2.852 0 3.21-.012 4.33-.063 1.117-.052 1.88-.228 2.548-.488a5.143 5.143 0 0 0 1.86-1.211 5.143 5.143 0 0 0 1.21-1.86c.26-.668.437-1.43.489-2.549.051-1.12.063-1.477.063-4.329 0-2.852-.012-3.21-.063-4.33-.052-1.117-.228-1.88-.488-2.548a5.142 5.142 0 0 0-1.211-1.86 5.143 5.143 0 0 0-1.86-1.21c-.668-.26-1.43-.437-2.549-.489C13.71.012 13.352 0 10.5 0z">
	</path>
	<path transform="translate(5.11 5.11)" d="M5.392 0a5.391 5.391 0 1 0 0 10.783A5.391 5.391 0 0 0 5.391 0zm0 8.893a3.5 3.5 0 1 1 0-7 3.5 3.5 0 0 1 0 7z">
	</path>
	<path transform="translate(14.85 3.64)" d="M2.52 1.26a1.26 1.26 0 1 1-2.52 0 1.26 1.26 0 0 1 2.52 0z">
	</path>
</svg>
