<svg width="23" height="30" xmlns="http://www.w3.org/2000/svg" xmlns:xlink="http://www.w3.org/1999/xlink">
  <use xlink:href="#path0_fill" fill="#AD2B31"></use>
  <defs>
    <path id="path0_fill" fill-rule="evenodd" d="M2 11.5a9.5 9.5 0 0 1 19 0c0 1.079-.521 2.668-1.564 4.633-1.024 1.937-2.376 3.92-3.786 5.798a85.116 85.116 0 0 1-4.15 5.088 85.11 85.11 0 0 1-4.15-5.088c-1.41-1.878-2.762-3.861-3.786-5.798C2.52 14.168 2 12.579 2 11.5zm21 0c0 4.995-7.114 13.578-10.152 17.014A65.348 65.348 0 0 1 11.5 30s-.524-.554-1.348-1.486C7.114 25.078 0 16.496 0 11.5 0 5.149 5.149 0 11.5 0S23 5.149 23 11.5zm-15 0a3.5 3.5 0 1 1 7 0 3.5 3.5 0 0 1-7 0zm-2 0a5.5 5.5 0 1 1 11 0 5.5 5.5 0 0 1-11 0z"></path>
  </defs>
</svg>
