<svg width="146" height="150" xmlns="http://www.w3.org/2000/svg" xmlns:xlink="http://www.w3.org/1999/xlink">
  <use xlink:href="#path0_fill" fill="#FFF" fill-opacity=".5"/>
  <use xlink:href="#path1_fill" transform="translate(66.4 8.3)" fill="#FFF" fill-opacity=".5"/>
  <defs>
    <path id="path0_fill" d="M157.7 133.353c-.553-.276-1.383-.83-1.936-1.106a154.587 154.587 0 0 0-14.945-6.62c-.287-.386-.652-.7-1.102-.85-6.363-2.214-13.28-4.427-20.196-6.087a2.645 2.645 0 0 0-1.335.034 198.822 198.822 0 0 0-10.272-2.128c.148-1.036.242-2.09.263-3.163v-7.313c11.669-10.295 18.883-26.93 18.537-42.487v-13.69c.187-.136.372-.275.553-.42a15.643 15.643 0 0 0 5.534-11.896C132.8 16.877 115.924 0 95.451 0H70.826C50.077 0 33.2 16.877 32.923 37.35c0 4.703 1.937 8.853 5.534 11.897.09.07.184.134.276.202v14.184c0 15.69 7.472 32.477 19.367 42.75v7.05c0 .967.06 1.918.164 2.854-17.216 3.09-33.39 8.231-48.028 15.683L8.3 133.076c-5.257 2.491-8.3 7.747-8.3 13.557v16.6C0 164.893 1.107 166 2.767 166h160.466c1.66 0 2.767-1.107 2.767-2.49v-16.6c0-5.533-3.32-10.79-8.3-13.557zm-37.073 10.514h-10.79l10.7-19.206a168.47 168.47 0 0 1 13.588 4.055l-13.498 15.151zm3.043-98.77c-.072.063-.148.122-.222.183a2.668 2.668 0 0 0-.884.37c-1.197.898-2.475 1.469-3.79 1.72a8.999 8.999 0 0 1-3.127-.06c-19.843-3.768-39.914-4.114-59.178-1.04-2.138.308-4.27.654-6.392 1.04-.34.038-.681.059-1.022.066-2.224-.04-4.38-.658-6.172-2.003-1.66-1.106-2.766-2.766-3.32-4.426l11.897-2.214c20.75-3.873 42.054-3.873 63.357 0l11.804 2.196a10.826 10.826 0 0 1-2.951 4.168zM70.55 5.533h24.624c16.97 0 30.889 13.216 32.017 29.904l-11.544-1.96c-21.857-3.874-43.99-3.874-65.294 0l-11.543 1.96C39.937 18.75 53.845 5.533 70.55 5.533zm-26.283 58.1V52.29c2.213.553 4.703.83 7.193.277a171.321 171.321 0 0 1 31.333-2.905c10.537.009 21.142.976 31.747 2.905a9.015 9.015 0 0 0 1.968.266c1.741.132 3.561-.127 5.225-.543v11.343c0 25.801-18.923 45.461-36.61 46.941-.2.016-.4.033-.599.044a29.134 29.134 0 0 1-1.524.049 25.71 25.71 0 0 1-1.518-.049c-.214-.012-.428-.03-.643-.047-3.564-.304-7.176-1.342-10.674-3.022l-.09-.042a34.968 34.968 0 0 1-7.272-4.864 3.49 3.49 0 0 0-.846-.4c-10.08-8.353-17.69-22.247-17.69-38.61zm37.402 52.539l.096.005a33.746 33.746 0 0 0 2.566-.005c6.55-.249 12.635-2.329 18.035-5.706v2.967c0 10.79-8.576 19.367-19.366 19.367s-19.367-8.577-19.367-19.367v-2.96c5.41 3.373 11.491 5.45 18.036 5.699zm-21.52 7.218a24.722 24.722 0 0 0 5 7.455 24.663 24.663 0 0 0 1.014.987c.026.025.051.05.078.074 3.818 3.48 8.69 5.725 14.089 6.285l.26.025c.305.029.611.052.92.069.102.006.205.013.308.018.392.018.786.03 1.183.03.396 0 .79-.012 1.184-.03.1-.004.2-.011.3-.017.317-.018.633-.042.947-.071l.221-.021c7.9-.81 14.799-5.201 18.715-11.775l.072-.12c.049-.084.099-.167.147-.252a25.355 25.355 0 0 0 2.039-4.295c2.724.448 5.417.967 8.081 1.542l-11.304 20.572H62.445l-11.287-20.542a165.658 165.658 0 0 1 8.326-1.591c.155.43.324.852.5 1.269.053.13.11.259.165.388zm-28.03 5.29a160.849 160.849 0 0 1 13.589-4.074l10.456 19.261h-10.79L32.118 128.68zM5.533 146.633c0-3.596 1.937-6.916 5.257-8.576l1.937-1.107a154.71 154.71 0 0 1 13.646-6.138l12.035 13.393c-6.214 1.373-10.742 6.815-10.742 13.495v2.767H5.533v-13.834zM33.2 160.467V157.7c0-4.703 3.597-8.3 8.3-8.3h83c4.704 0 8.3 3.597 8.3 8.3v2.767H33.2zm127.267 0h-22.134V157.7c0-6.754-4.627-12.245-10.948-13.542l12.118-13.485a168.15 168.15 0 0 1 13.77 6c.554.554 1.384.83 1.937 1.107 3.32 1.936 5.257 5.256 5.257 8.853v13.834z"/>
    <path id="path1_fill" d="M2.767 16.6h27.666c1.66 0 2.767-1.107 2.767-2.767V2.767C33.2 1.107 32.093 0 30.433 0H2.767C1.107 0 0 1.107 0 2.767v11.066c0 1.66 1.107 2.767 2.767 2.767zM5.533 5.533h22.134v5.534H5.533V5.533z"/>
  </defs>
</svg>
