<svg width="20" height="20" viewBox="0 0 20 20" version="1.1" xmlns="http://www.w3.org/2000/svg" xmlns:xlink="http://www.w3.org/1999/xlink">
	<g id="Canvas" transform="translate(-2724 397)">
		<g id="Vector">
			<use xlink:href="#path0_fill" transform="translate(2724 -397)" fill="#FFFFFF" />
		</g>
	</g>
	<defs>
		<path id="path0_fill" d="M 18.7849 15.226C 17.1704 14.3767 15.6394 13.7735 14.2846 13.4832C 14.9159 12.6779 15.3942 11.7229 15.6426 10.7116C 16.243 10.4665 16.6673 9.87656 16.6673 9.18904L 16.6673 6.64408C 16.6673 6.01627 16.3136 5.46984 15.7951 5.19293C 15.4525 2.3275 12.8559 0 10.0004 0C 7.14494 0 4.54841 2.32735 4.20571 5.19261C 3.68723 5.46952 3.33352 6.01596 3.33352 6.64372L 3.33352 9.18951C 3.33352 9.87699 3.75774 10.4664 4.35802 10.7113C 4.60645 11.7227 5.08474 12.6777 5.7161 13.4831C 4.36161 13.7735 2.83051 14.3767 1.21617 15.2259C 0.468829 15.6193 7.42186e-12 16.3957 7.42186e-12 17.24L 7.42186e-12 19.1667C 7.42186e-12 19.6269 0.373087 20 0.833322 20L 19.1667 20C 19.6269 20 20 19.6269 20 19.1667L 20 17.24C 20 16.3956 19.532 15.6193 18.7849 15.226ZM 5.83368 5.83323C 5.83368 3.61475 7.84377 1.66661 10.0004 1.66661C 12.157 1.66661 14.1671 3.61479 14.1671 5.83323L 14.1671 9.1665C 14.1671 9.50985 14.1271 9.85258 14.0534 10.1886C 12.9083 10.5528 11.3591 10.8332 10.0006 10.8332C 9.54041 10.8332 9.16732 11.2062 9.16732 11.6665C 9.16732 12.1267 9.54041 12.4998 10.0006 12.4998C 11.0501 12.4998 12.1809 12.3563 13.2071 12.1339C 12.8569 12.6505 12.4312 13.1004 11.9651 13.4446C 11.9419 13.4579 11.9192 13.4719 11.8973 13.4875C 11.4337 13.8169 10.9464 14.0311 10.466 14.1174C 10.304 14.1459 10.1805 14.1606 10.0717 14.1651C 10.0479 14.1657 10.0242 14.1664 10.0004 14.1664C 9.97592 14.1664 9.95146 14.1658 9.92697 14.165C 9.81932 14.1605 9.69936 14.1465 9.5583 14.1222C 9.05451 14.031 8.56717 13.8169 8.10357 13.4875C 8.0815 13.4718 8.05857 13.4577 8.03521 13.4443C 6.79044 12.5248 5.83368 10.8522 5.83368 9.16654L 5.83368 5.83323ZM 18.3334 18.3334L 1.66668 18.3334L 1.66668 17.2401C 1.66668 17.0146 1.7927 16.8059 1.99235 16.7008C 3.76864 15.7664 5.41071 15.1656 6.71767 15.0001L 7.35849 15.0001C 8.13443 15.5018 8.9965 15.8056 9.87963 15.8311C 9.91982 15.8325 9.95998 15.8335 10 15.8335C 10.0401 15.8335 10.0802 15.8325 10.1204 15.8311C 11.0037 15.8057 11.866 15.5019 12.6422 15.0001L 13.2824 15.0001C 14.59 15.1656 16.2321 15.7663 18.0087 16.701C 18.2078 16.8057 18.3334 17.0141 18.3334 17.2401L 18.3334 18.3334Z" />
	</defs>
</svg>
