<svg width="71" height="80" xmlns="http://www.w3.org/2000/svg" xmlns:xlink="http://www.w3.org/1999/xlink">
  <use xlink:href="#path0_fill" transform="translate(16.681 26.67)" fill="#AD2B31"/>
  <use xlink:href="#path1_fill" fill="#AD2B31"/>
  <defs>
    <path id="path0_fill" d="M39.546.487a1.67 1.67 0 0 0-2.359 0L15.014 22.641 2.847 10.488a1.667 1.667 0 1 0-2.359 2.357l13.345 13.332a1.677 1.677 0 0 0 2.359 0L39.546 2.845c.65-.65.65-1.706 0-2.357z"/>
    <path id="path1_fill" d="M68.871 10.07L35.508.07a1.673 1.673 0 0 0-.957 0l-33.363 10C.484 10.28 0 10.93 0 11.667v36.666c0 14.74 22.493 27.85 34.537 31.594.16.05.327.073.494.073.167 0 .334-.023.494-.073 12.044-3.747 34.537-16.854 34.537-31.594V11.667c0-.737-.484-1.384-1.19-1.597zm-2.145 38.263c0 11.704-18.56 24.01-31.695 28.254-13.135-4.244-31.695-16.55-31.695-28.254V12.907l31.695-9.5 31.695 9.5v35.426z"/>
  </defs>
</svg>
